<svg viewBox="0 0 24 24" fill="none" xmlns="http://www.w3.org/2000/svg">
  <path d="M9 4.5C9.8 3.56 11 3 12.35 3C14.26 3 15.84 4.12 16.5 5.74C18.43 5.98 20 7.62 20 9.62C20 10.83 19.42 11.92 18.52 12.6C18.84 13.15 19 13.78 19 14.44C19 16.33 17.6 17.94 15.76 18.2C15.03 19.9 13.34 21 11.49 21C9.63 21 7.93 19.89 7.21 18.16C5.39 17.86 4 16.27 4 14.41C4 13.7 4.2 13.03 4.56 12.45C3.6 11.78 3 10.66 3 9.4C3 7.35 4.62 5.67 6.62 5.41C7.15 5.03 8 4.7 9 4.5Z" fill="currentColor"/>
  <path d="M11.2 6.5V17.8M8.3 8.1C9.2 8.3 10 9 10.1 10M13.8 7.9C14.7 8.1 15.5 8.9 15.7 9.9M8.1 13.4C8.95 13.6 9.75 14.35 10 15.25M13.8 13.1C14.6 13.35 15.28 14.05 15.5 14.9M11.2 11.55C12.1 11.8 12.95 12.6 13.15 13.55" stroke="#F8FAFC" stroke-width="1.2" stroke-linecap="round"/>
</svg>

